<svg xmlns="http://www.w3.org/2000/svg" width="1280" height="760" viewBox="0 0 1280 760">
  <defs>
    <linearGradient id="bg" x1="0" x2="1" y1="0" y2="1">
      <stop offset="0" stop-color="#07111f"/>
      <stop offset="1" stop-color="#0f2f3d"/>
    </linearGradient>
    <linearGradient id="a" x1="0" x2="1">
      <stop offset="0" stop-color="#10c8e8"/>
      <stop offset="1" stop-color="#23d18b"/>
    </linearGradient>
  </defs>
  <rect width="1280" height="760" fill="url(#bg)"/>
  <rect x="62" y="54" width="1156" height="652" rx="28" fill="#0b1627" stroke="#24415f"/>
  <rect x="92" y="92" width="160" height="576" rx="18" fill="#08101d" stroke="#1d324b"/>
  <rect x="286" y="92" width="610" height="370" rx="18" fill="#101e32" stroke="#243b58"/>
  <rect x="922" y="92" width="266" height="370" rx="18" fill="#101e32" stroke="#243b58"/>
  <rect x="286" y="488" width="902" height="180" rx="18" fill="#101e32" stroke="#243b58"/>
  <circle cx="130" cy="130" r="24" fill="url(#a)"/>
  <text x="166" y="137" fill="#f4fbff" font-family="Segoe UI,Arial" font-size="24" font-weight="700">DHS MEDIA</text>
  <rect x="116" y="190" width="112" height="34" rx="9" fill="#103a52"/>
  <rect x="116" y="246" width="86" height="18" rx="5" fill="#293d56"/>
  <rect x="116" y="292" width="96" height="18" rx="5" fill="#293d56"/>
  <rect x="116" y="338" width="72" height="18" rx="5" fill="#293d56"/>
  <text x="326" y="154" fill="#f4fbff" font-family="Segoe UI,Arial" font-size="32" font-weight="800">Cao TikTok va xu ly video</text>
  <text x="326" y="198" fill="#8fb0c8" font-family="Segoe UI,Arial" font-size="18">Preview, voice, preset, hang doi va render CPU/GPU.</text>
  <rect x="326" y="246" width="154" height="86" rx="14" fill="#0d3142" stroke="#1a80a3"/>
  <rect x="502" y="246" width="154" height="86" rx="14" fill="#132238" stroke="#29425d"/>
  <rect x="678" y="246" width="154" height="86" rx="14" fill="#132238" stroke="#29425d"/>
  <rect x="326" y="362" width="506" height="34" rx="8" fill="url(#a)"/>
  <rect x="956" y="134" width="190" height="286" rx="18" fill="#050b13" stroke="#1f344d"/>
  <rect x="982" y="166" width="138" height="220" rx="12" fill="#16253a"/>
  <circle cx="1051" cy="404" r="8" fill="#31516f"/>
  <rect x="326" y="532" width="206" height="32" rx="8" fill="#14253b"/>
  <rect x="326" y="584" width="810" height="14" rx="7" fill="#203650"/>
  <rect x="326" y="614" width="680" height="14" rx="7" fill="#203650"/>
</svg>
