<svg xmlns="http://www.w3.org/2000/svg" viewBox="0 0 64 64">
  <defs>
    <linearGradient id="mark" x1="8" x2="56" y1="8" y2="56" gradientUnits="userSpaceOnUse">
      <stop stop-color="#00d5ff"/>
      <stop offset="1" stop-color="#13c8a8"/>
    </linearGradient>
  </defs>
  <rect width="64" height="64" rx="14" fill="#07111f"/>
  <path fill="url(#mark)" d="M16 12.5c0-2.5 2.7-4 4.9-2.7l29.5 17.1c2.2 1.3 2.2 4.5 0 5.8L20.9 49.9c-2.2 1.3-4.9-.3-4.9-2.8V12.5Zm10.5 11.1v12.5L37.3 30 26.5 23.6Z"/>
  <path fill="#e8fbff" d="M21.5 50.5h21.8c1.9 0 3.5 1.6 3.5 3.5s-1.6 3.5-3.5 3.5H21.5A3.5 3.5 0 0 1 18 54c0-1.9 1.6-3.5 3.5-3.5Z" opacity=".92"/>
</svg>
